<?xml version="1.0" standalone="no"?>
<svg xmlns:xlink="http://www.w3.org/1999/xlink" id="wave" style="transform:rotate(0deg); transition: 0.3s" viewBox="0 0 1440 330" version="1.1" xmlns="http://www.w3.org/2000/svg"><defs><linearGradient id="sw-gradient-0" x1="0" x2="0" y1="1" y2="0"><stop stop-color="rgba(75, 69, 194, 1)" offset="0%"/><stop stop-color="rgba(108, 99, 255, 1)" offset="100%"/></linearGradient></defs><path style="transform:translate(0, 0px); opacity:1" fill="url(#sw-gradient-0)" d="M0,231L34.3,203.5C68.6,176,137,121,206,115.5C274.3,110,343,154,411,181.5C480,209,549,220,617,187C685.7,154,754,77,823,77C891.4,77,960,154,1029,159.5C1097.1,165,1166,99,1234,66C1302.9,33,1371,33,1440,55C1508.6,77,1577,121,1646,132C1714.3,143,1783,121,1851,132C1920,143,1989,187,2057,176C2125.7,165,2194,99,2263,82.5C2331.4,66,2400,99,2469,104.5C2537.1,110,2606,88,2674,110C2742.9,132,2811,198,2880,220C2948.6,242,3017,220,3086,209C3154.3,198,3223,198,3291,181.5C3360,165,3429,132,3497,104.5C3565.7,77,3634,55,3703,44C3771.4,33,3840,33,3909,71.5C3977.1,110,4046,187,4114,214.5C4182.9,242,4251,220,4320,214.5C4388.6,209,4457,220,4526,225.5C4594.3,231,4663,231,4731,209C4800,187,4869,143,4903,121L4937.1,99L4937.1,330L4902.9,330C4868.6,330,4800,330,4731,330C4662.9,330,4594,330,4526,330C4457.1,330,4389,330,4320,330C4251.4,330,4183,330,4114,330C4045.7,330,3977,330,3909,330C3840,330,3771,330,3703,330C3634.3,330,3566,330,3497,330C3428.6,330,3360,330,3291,330C3222.9,330,3154,330,3086,330C3017.1,330,2949,330,2880,330C2811.4,330,2743,330,2674,330C2605.7,330,2537,330,2469,330C2400,330,2331,330,2263,330C2194.3,330,2126,330,2057,330C1988.6,330,1920,330,1851,330C1782.9,330,1714,330,1646,330C1577.1,330,1509,330,1440,330C1371.4,330,1303,330,1234,330C1165.7,330,1097,330,1029,330C960,330,891,330,823,330C754.3,330,686,330,617,330C548.6,330,480,330,411,330C342.9,330,274,330,206,330C137.1,330,69,330,34,330L0,330Z"/><defs><linearGradient id="sw-gradient-1" x1="0" x2="0" y1="1" y2="0"><stop stop-color="rgba(75, 69, 194, 1)" offset="0%"/><stop stop-color="rgba(108, 99, 255, 1)" offset="100%"/></linearGradient></defs><path style="transform:translate(0, 50px); opacity:0.9" fill="url(#sw-gradient-1)" d="M0,297L34.3,264C68.6,231,137,165,206,137.5C274.3,110,343,121,411,154C480,187,549,242,617,231C685.7,220,754,143,823,93.5C891.4,44,960,22,1029,22C1097.1,22,1166,44,1234,44C1302.9,44,1371,22,1440,22C1508.6,22,1577,44,1646,55C1714.3,66,1783,66,1851,71.5C1920,77,1989,88,2057,126.5C2125.7,165,2194,231,2263,258.5C2331.4,286,2400,275,2469,275C2537.1,275,2606,286,2674,291.5C2742.9,297,2811,297,2880,286C2948.6,275,3017,253,3086,247.5C3154.3,242,3223,253,3291,236.5C3360,220,3429,176,3497,176C3565.7,176,3634,220,3703,242C3771.4,264,3840,264,3909,258.5C3977.1,253,4046,242,4114,209C4182.9,176,4251,121,4320,132C4388.6,143,4457,220,4526,214.5C4594.3,209,4663,121,4731,99C4800,77,4869,121,4903,143L4937.1,165L4937.1,330L4902.9,330C4868.6,330,4800,330,4731,330C4662.9,330,4594,330,4526,330C4457.1,330,4389,330,4320,330C4251.4,330,4183,330,4114,330C4045.7,330,3977,330,3909,330C3840,330,3771,330,3703,330C3634.3,330,3566,330,3497,330C3428.6,330,3360,330,3291,330C3222.9,330,3154,330,3086,330C3017.1,330,2949,330,2880,330C2811.4,330,2743,330,2674,330C2605.7,330,2537,330,2469,330C2400,330,2331,330,2263,330C2194.3,330,2126,330,2057,330C1988.6,330,1920,330,1851,330C1782.9,330,1714,330,1646,330C1577.1,330,1509,330,1440,330C1371.4,330,1303,330,1234,330C1165.7,330,1097,330,1029,330C960,330,891,330,823,330C754.3,330,686,330,617,330C548.6,330,480,330,411,330C342.9,330,274,330,206,330C137.1,330,69,330,34,330L0,330Z"/><defs><linearGradient id="sw-gradient-2" x1="0" x2="0" y1="1" y2="0"><stop stop-color="rgba(75, 69, 194, 1)" offset="0%"/><stop stop-color="rgba(108, 99, 255, 1)" offset="100%"/></linearGradient></defs><path style="transform:translate(0, 100px); opacity:0.8" fill="url(#sw-gradient-2)" d="M0,198L34.3,165C68.6,132,137,66,206,49.5C274.3,33,343,66,411,66C480,66,549,33,617,55C685.7,77,754,154,823,187C891.4,220,960,209,1029,170.5C1097.1,132,1166,66,1234,33C1302.9,0,1371,0,1440,38.5C1508.6,77,1577,154,1646,154C1714.3,154,1783,77,1851,49.5C1920,22,1989,44,2057,88C2125.7,132,2194,198,2263,220C2331.4,242,2400,220,2469,225.5C2537.1,231,2606,264,2674,275C2742.9,286,2811,275,2880,269.5C2948.6,264,3017,264,3086,253C3154.3,242,3223,220,3291,214.5C3360,209,3429,220,3497,203.5C3565.7,187,3634,143,3703,143C3771.4,143,3840,187,3909,176C3977.1,165,4046,99,4114,71.5C4182.9,44,4251,55,4320,71.5C4388.6,88,4457,110,4526,132C4594.3,154,4663,176,4731,187C4800,198,4869,198,4903,198L4937.1,198L4937.1,330L4902.9,330C4868.6,330,4800,330,4731,330C4662.9,330,4594,330,4526,330C4457.1,330,4389,330,4320,330C4251.4,330,4183,330,4114,330C4045.7,330,3977,330,3909,330C3840,330,3771,330,3703,330C3634.3,330,3566,330,3497,330C3428.6,330,3360,330,3291,330C3222.9,330,3154,330,3086,330C3017.1,330,2949,330,2880,330C2811.4,330,2743,330,2674,330C2605.7,330,2537,330,2469,330C2400,330,2331,330,2263,330C2194.3,330,2126,330,2057,330C1988.6,330,1920,330,1851,330C1782.9,330,1714,330,1646,330C1577.1,330,1509,330,1440,330C1371.4,330,1303,330,1234,330C1165.7,330,1097,330,1029,330C960,330,891,330,823,330C754.3,330,686,330,617,330C548.6,330,480,330,411,330C342.9,330,274,330,206,330C137.1,330,69,330,34,330L0,330Z"/></svg>